<svg id="Layer_1" data-name="Layer 1" xmlns="http://www.w3.org/2000/svg" viewBox="0 0 1245.93 1053.03"><defs><style>.cls-1{font-size:204.03px;font-family:Roboto-Bold, Roboto;font-weight:700;}</style></defs><text class="cls-1" transform="translate(168.43 676.42) rotate(-89.83)">G</text><text class="cls-1" transform="matrix(0.26, -0.97, 0.97, 0.26, 169.62, 546.08)">e</text><text class="cls-1" transform="translate(195.79 446.34) rotate(-62.24)">s</text><text class="cls-1" transform="matrix(0.65, -0.76, 0.76, 0.65, 240.48, 359.52)">c</text><text class="cls-1" transform="matrix(0.8, -0.59, 0.59, 0.8, 303.68, 283.34)">h</text><text class="cls-1" transform="matrix(0.9, -0.45, 0.45, 0.9, 391.89, 220.86)">l</text><text class="cls-1" transform="translate(434.1 196.65) rotate(-16.7)">e</text><text class="cls-1" transform="translate(532.45 166.47) rotate(-3.75)">c</text><text class="cls-1" transform="matrix(0.99, 0.16, -0.16, 0.99, 631.11, 158.7)">h</text><text class="cls-1" transform="translate(737.06 177.92) rotate(20.25)">t</text><text class="cls-1" transform="translate(796.94 197.32) rotate(30.93)">e</text><text class="cls-1" transform="translate(885.3 251.56) rotate(42.01)">r</text><text class="cls-1" transform="translate(937 297.3) rotate(51.16)">-</text><text class="cls-1" transform="translate(985.06 351.4) rotate(63.57)">R</text><text class="cls-1" transform="translate(1039.15 460.82) rotate(77.81)">a</text><text class="cls-1" transform="matrix(-0.02, 1, -1, -0.02, 1061.86, 560.07)">d</text><text class="cls-1" transform="translate(1060.05 667.37) rotate(104.61)">a</text><text class="cls-1" transform="matrix(-0.43, 0.9, -0.9, -0.43, 1033.1, 766.72)">r</text><path d="M614.67,207.33a399.37,399.37,0,1,1-156,31.48,398.22,398.22,0,0,1,156-31.48m0-24c-234.58,0-424.75,190.17-424.75,424.75s190.17,424.75,424.75,424.75,424.75-190.16,424.75-424.75S849.26,183.33,614.67,183.33Z"/></svg>