<svg id="Layer_1" data-name="Layer 1" xmlns="http://www.w3.org/2000/svg" viewBox="0 0 1245.93 1053.03"><path d="M150.45,548.63q9.63,8.1,14.92,22.86a95.5,95.5,0,0,1,5.23,32.69q0,18.83-8.31,33A54.8,54.8,0,0,1,138.36,659q-15.66,7.68-36.78,7.81l-9.87,0q-21.72-.07-37.58-7.44T29.88,638.18q-8.37-13.83-8.32-32.35Q21.64,580,34,565.52t35.87-17.13l-.09,29.09q-12.45,1.95-18.25,8.76T45.67,605q0,15.24,11.39,23.25t34.05,8.17l9.26,0q22.82.06,34.5-8.57t11.73-25.37q0-16.83-7.1-24l-25-.07-.08,27.19-22-.06.17-57.08Z"/><path d="M187.22,488q-6.14,22.9-24.05,33.52t-41.28,4.35l-2.7-.73a65.11,65.11,0,0,1-26.42-13.58,46.11,46.11,0,0,1-14.45-22.29,50,50,0,0,1,.11-27.14q5.73-21.37,22.5-30t41.49-2l11.35,3.05L136,499.41q10.56,1.38,18.54-3.75t10.76-15.52q4.32-16.06-4.9-28.24l19-9.56A43.29,43.29,0,0,1,188.62,463,57.48,57.48,0,0,1,187.22,488Zm-86.39-19.77a18,18,0,0,0,2,14.93q4.22,6.66,14.27,10.89l10.38-38.68-2.23-.59q-9.33-2.29-15.69,1.15T100.83,468.21Z"/><path d="M201.74,371q-4.68-2.46-9.8.76t-12.62,12.32q-25,30.29-46.83,18.81-12.69-6.67-15.66-21.69t6-32q9.55-18.15,23.84-24.54t27.94.8L161.2,350.91a13.91,13.91,0,0,0-10.89-1.23q-5.43,1.65-9.37,9.14-3.39,6.44-2.33,11.49a10.38,10.38,0,0,0,5.55,7.43q4.23,2.22,8.94-.42t11.62-11.17a124.75,124.75,0,0,1,12.72-13.79q18-16.29,36.28-6.69,13,6.87,15.22,22.31t-7.15,33.16a57,57,0,0,1-15.48,19,40.26,40.26,0,0,1-19.41,8.42A30.67,30.67,0,0,1,168,425.42l12.71-24.15q7,3.23,13,.45T204,391.1q3.85-7.31,3-12.52A9.78,9.78,0,0,0,201.74,371Z"/><path d="M260.54,303.19q5.16-6.06,5.06-12.7a15.37,15.37,0,0,0-5.51-11.5l17.5-20.55A37,37,0,0,1,289,276a39.4,39.4,0,0,1,.33,21.42,50.33,50.33,0,0,1-10.8,20.44q-15,17.6-34.83,18.23t-39.56-16.17l-1.44-1.23q-19-16.14-21.67-35.86t12.28-37.31q13.13-15.39,29.79-17.22t31.36,10.42L237,259.29q-6.54-5.31-13.77-4.92T210.66,261q-6.53,7.65-4.27,16.32t14.79,19.33l2.28,1.94q12.67,10.81,21.52,11.67T260.54,303.19Z"/><path d="M278.13,182.8q1.06-17.87,15-28.15,28.22-20.82,52.81,11.66l41,55.56L363.77,239l-40.51-54.91q-5.5-7.45-11.34-8.66t-13.3,4.3q-10.19,7.51-8.95,18.74l45.48,61.65L312,277.17,221.13,154,244.3,137Z"/><path d="M429,202.38,403.1,215.25l-68.17-137L360.8,65.38Z"/><path d="M492.75,181.1q-22.71,6.81-41.15-2.84t-25.41-32.84l-.8-2.67q-4.67-15.56-2.33-29.62a46.13,46.13,0,0,1,11.36-24A49.9,49.9,0,0,1,457.58,75q21.18-6.36,37.36,3.35t23.53,34.23l3.37,11.26L456.1,143.53q4.36,9.71,12.93,13.8t18.86,1q15.94-4.77,21.44-19l18.11,11.1a43.24,43.24,0,0,1-12.69,18.74A57.49,57.49,0,0,1,492.75,181.1Zm-28.6-83.88a18,18,0,0,0-11.64,9.55q-3.43,7.1-1.76,17.87l38.36-11.51-.67-2.2q-2.94-9.15-9.23-12.75T464.15,97.22Z"/><path d="M586.8,141.62c5.3-.35,9.51-2.08,12.64-5.22a15.34,15.34,0,0,0,4.4-12l26.94-1.77a37,37,0,0,1-4.65,20.43A39.44,39.44,0,0,1,611,158.26a50.38,50.38,0,0,1-22.18,6.49q-23.07,1.51-37.35-12.27t-16-39.64l-.12-1.89Q533.73,86.1,546,70.42T581.3,53.23q20.18-1.32,33.11,9.36t14.38,29.75l-26.94,1.77q-.75-8.39-6.06-13.3t-13.47-4.39q-10,.66-14.68,8.31t-3.56,24.09l.2,3q1.08,16.64,6.63,23.57T586.8,141.62Z"/><path d="M685.47,70.39Q699,58.71,716.13,61.56q34.59,5.76,28.39,46l-11.35,68.1L704.77,171,716,103.65q1.51-9.14-1.68-14.17T702,82.93q-12.48-2.09-19.69,6.62l-12.59,75.57-28.4-4.73L666.44,9.45l28.4,4.73Z"/><path d="M826.22,67.67l-9.17,24.86,17.29,6.38L827,118.72l-17.29-6.38-18.62,50.47q-2.07,5.61-.82,8.84c.84,2.14,3.28,4,7.33,5.46a46.89,46.89,0,0,0,8.19,2.28l-7.55,20.46a59.06,59.06,0,0,1-17.25-3.6q-28.42-10.49-18.39-39.38l20.1-54.49L768,96.93l7.31-19.82L790,82.56l9.17-24.86Z"/><path d="M847.92,230.2Q827.58,218,822.29,197.88t7.14-40.9l1.44-2.39q8.34-13.92,20.31-21.68a46.07,46.07,0,0,1,25.39-7.78,49.83,49.83,0,0,1,26.08,7.56q19,11.35,22.69,29.86T915.91,203l-6,10.08L851,177.8q-4.23,9.78-1.49,18.85t12,14.61q14.26,8.55,28.5,3l4,20.86a43.22,43.22,0,0,1-22.39,3.25A57.59,57.59,0,0,1,847.92,230.2Zm42.71-77.66a18,18,0,0,0-14.9-2.16q-7.56,2.24-14.4,10.74l34.35,20.59,1.19-2q4.77-8.34,3.19-15.41T890.63,152.54Z"/><path d="M992.56,239.45a77.32,77.32,0,0,0-7.16-7.53q-12.15-10.93-23.32-6.11l-47.2,52.4-21.39-19.27,72.13-80.09,20.21,18.2-8,10.09q16.36-5.23,27.77,5a30.12,30.12,0,0,1,5.79,7Z"/><path d="M1018.36,317.84l-35.18-43.69,18.09-14.56,35.17,43.69Z"/><path d="M1062.24,387.44l-10.6-21.33-47.55,23.64L990.79,363l129.9-64.55,24,48.26q11.44,23,7.39,40.61t-22.79,26.9q-13.29,6.6-25,5.26t-22.8-10.41l-39.12,54.48-1.25.62-14.28-28.73Zm11.08-32.1,10.73,21.59q5,10.08,12.89,13.06t16.89-1.49q9.2-4.58,11.86-12.4T1123,357.47L1112.31,336Z"/><path d="M1054.64,532.67a31.91,31.91,0,0,1,8.84-4.87q-13.61-7.75-17.14-24.12-3.35-15.48,3.41-27.59a29.47,29.47,0,0,1,20.4-15.06q16.74-3.61,28.39,6.86t16.81,33.93l2.79,12.95,6-1.31q7.3-1.58,10.88-6.27t1.82-12.78q-1.53-7.11-5.82-10.41a11.84,11.84,0,0,0-10.22-2l-6.08-28.14a28.94,28.94,0,0,1,18.17,2,38.31,38.31,0,0,1,15.67,13.33,59.51,59.51,0,0,1,9.44,22.22q4.2,19.47-3.11,33t-25,17.39l-45.67,9.86q-15,3.35-21.78,9.09l-1.65.36Zm14.55-27.5a24.83,24.83,0,0,0,5.25,10.89,18.71,18.71,0,0,0,9.14,6.18l18.11-3.92-2.27-10.51q-4.58-21.13-19.47-19.34l-1.68.26a11.5,11.5,0,0,0-7.86,5.57Q1067.8,498.74,1069.19,505.17Z"/><path d="M1116.36,567.82q25.2.54,39.89,12.18t14.27,31.25A33,33,0,0,1,1158.2,637l55,1.19-.63,28.89-153-3.33.57-26,11.48-1.14q-13.2-11.05-12.84-28,.42-19,15.65-30.2T1116.36,567.82Zm-2.77,28.73q-15.16-.33-23.36,4.78t-8.41,15.16q-.3,13.35,10.86,19.07l42.59.93q11.38-5.15,11.68-18.38Q1147.4,597.29,1113.59,596.55Z"/><path d="M1041.46,738.49a32.15,32.15,0,0,1,10.08-.36q-8.62-13.05-4.41-29.25,4-15.33,15.49-23.09a29.47,29.47,0,0,1,25-4.25q16.58,4.32,22.25,18.93t-.3,37.86l-3.34,12.82,6,1.56q7.23,1.89,12.54-.7t7.39-10.58q1.83-7-.5-11.91a11.82,11.82,0,0,0-8.21-6.42l7.27-27.86a28.94,28.94,0,0,1,15.31,10q6.26,7.59,8,19a59.57,59.57,0,0,1-1.6,24.09q-5,19.28-17.66,28.08t-30.19,4.22l-45.21-11.78q-14.88-3.78-23.55-1.71l-1.63-.43Zm25.39-18a24.82,24.82,0,0,0-.22,12.1,18.7,18.7,0,0,0,5.36,9.63l17.94,4.67,2.71-10.41q5.46-20.91-8.65-26l-1.62-.52a11.52,11.52,0,0,0-9.53,1.43Q1068.51,714.14,1066.85,720.5Z"/><path d="M1075.2,866.13a78.22,78.22,0,0,0,5.18-9q7-14.75-.78-24.09l-63.68-30.32,12.38-26,97.32,46.35-11.69,24.55-12-4.8q9.68,14.21,3.08,28.05a30.23,30.23,0,0,1-5,7.54Z"/><path d="M614.67,207.33a399.37,399.37,0,1,1-156,31.48,398.22,398.22,0,0,1,156-31.48m0-24c-234.58,0-424.75,190.17-424.75,424.75s190.17,424.75,424.75,424.75,424.75-190.16,424.75-424.75S849.26,183.33,614.67,183.33Z"/></svg>